<?xml version="1.0" standalone="no"?>
<!DOCTYPE svg PUBLIC "-//W3C//DTD SVG 20010904//EN"
 "http://www.w3.org/TR/2001/REC-SVG-20010904/DTD/svg10.dtd">
<svg version="1.0" xmlns="http://www.w3.org/2000/svg"
 width="377.000000pt" height="341.000000pt" viewBox="0 0 377.000000 341.000000"
 preserveAspectRatio="xMidYMid meet">

<g transform="translate(0.000000,341.000000) scale(0.100000,-0.100000)"
fill="#000000" stroke="none">
<path d="M916 3379 c-232 -34 -444 -145 -611 -320 -141 -149 -226 -310 -267
-509 -27 -129 -21 -365 11 -485 30 -110 108 -267 180 -361 33 -44 420 -441
861 -884 l800 -805 800 805 c440 443 828 841 862 885 73 95 148 247 180 365
20 75 23 107 22 270 0 157 -3 197 -22 262 -50 183 -132 327 -265 465 -408 425
-1077 429 -1494 7 l-83 -84 -83 84 c-86 87 -215 179 -312 221 -181 80 -393
111 -579 84z m369 -169 c249 -66 462 -237 576 -463 l30 -58 35 68 c173 329
530 519 891 474 324 -40 581 -228 720 -527 96 -208 102 -476 17 -692 -34 -84
-91 -183 -142 -244 -22 -26 -373 -384 -781 -795 l-741 -748 -737 744 c-406
409 -762 774 -791 810 -70 86 -146 243 -172 353 -23 99 -28 269 -10 367 43
236 191 460 393 594 98 65 235 117 362 137 89 13 258 4 350 -20z"/>
</g>
</svg>
