<?xml version="1.0" standalone="no"?>
<!DOCTYPE svg PUBLIC "-//W3C//DTD SVG 20010904//EN"
 "http://www.w3.org/TR/2001/REC-SVG-20010904/DTD/svg10.dtd">
<svg version="1.0" xmlns="http://www.w3.org/2000/svg"
 width="820.000000pt" height="860.000000pt" viewBox="0 0 820.000000 860.000000"
 preserveAspectRatio="xMidYMid meet">

<g transform="translate(0.000000,860.000000) scale(0.100000,-0.100000)"
fill="#000000" stroke="none">
<path d="M4015 8194 c-296 -43 -459 -127 -670 -346 -50 -51 -365 -379 -700
-728 -866 -902 -1112 -1158 -1245 -1295 -266 -275 -1069 -1113 -1097 -1145
-126 -147 -203 -331 -203 -489 0 -210 147 -395 370 -467 46 -14 104 -18 342
-22 l288 -4 0 -1257 c0 -1382 -1 -1346 61 -1535 114 -344 368 -593 691 -678
81 -21 102 -22 791 -25 l707 -4 0 1416 c0 1011 3 1429 11 1461 14 53 61 98
119 114 26 7 236 10 642 8 582 -3 604 -4 637 -23 44 -26 70 -62 81 -111 6 -22
10 -640 10 -1452 l0 -1413 708 4 c777 4 761 3 916 67 261 109 466 340 565 636
62 185 61 155 61 1536 l0 1256 288 4 c303 5 335 9 437 60 107 54 205 162 247
270 29 76 34 189 13 284 -36 165 -113 289 -296 479 -171 178 -2296 2388 -2703
2811 -180 188 -359 365 -397 393 -120 90 -265 154 -407 181 -63 11 -224 20
-267 14z"/>
</g>
</svg>
