<?xml version="1.0" encoding="utf-8"?>
<!-- Generator: Adobe Illustrator 25.2.0, SVG Export Plug-In . SVG Version: 6.00 Build 0)  -->
<svg version="1.1" id="Layer_1" xmlns="http://www.w3.org/2000/svg" xmlns:xlink="http://www.w3.org/1999/xlink" x="0px" y="0px"
	 viewBox="0 0 22 22" style="enable-background:new 0 0 22 22;" xml:space="preserve">
<style type="text/css">
	.st0{fill:#262626;}
</style>
<path class="st0" d="M20.9,22h-7.1c-0.4,0-0.7-0.3-0.7-0.7v-5.6c0-1.2-1-2.1-2.1-2.1s-2.1,1-2.1,2.1v5.6c0,0.4-0.3,0.7-0.7,0.7H1.1
	c-0.4,0-0.7-0.3-0.7-0.7V10.5c0-0.2,0.1-0.4,0.2-0.5l9.9-9.9c0.3-0.3,0.7-0.3,1,0l9.9,9.9c0.1,0.1,0.2,0.3,0.2,0.5v10.8
	C21.5,21.7,21.2,22,20.9,22z"/>
</svg>
