<?xml version="1.0" standalone="no"?>
<!DOCTYPE svg PUBLIC "-//W3C//DTD SVG 20010904//EN"
 "http://www.w3.org/TR/2001/REC-SVG-20010904/DTD/svg10.dtd">
<svg version="1.0" xmlns="http://www.w3.org/2000/svg"
 width="200.000000pt" height="200.000000pt" viewBox="0 0 200.000000 200.000000"
 preserveAspectRatio="xMidYMid meet">

<g transform="translate(0.000000,200.000000) scale(0.100000,-0.100000)"
fill="#000000" stroke="none">
<path d="M875 1725 c-251 -46 -450 -222 -532 -470 -23 -69 -27 -97 -27 -205 0
-144 13 -201 76 -322 136 -262 427 -405 732 -359 l81 13 170 -61 c94 -34 175
-61 181 -61 16 0 44 34 44 52 0 9 -27 58 -61 109 -34 51 -63 99 -66 106 -3 7
13 33 36 58 318 345 194 915 -239 1096 -130 55 -260 69 -395 44z m240 -100
c332 -70 538 -396 455 -719 -27 -106 -73 -188 -152 -272 -38 -39 -68 -80 -68
-90 0 -11 16 -43 35 -71 19 -29 35 -55 35 -57 0 -3 -50 12 -111 34 l-111 39
-61 -14 c-198 -47 -406 13 -552 159 -284 284 -208 760 149 937 133 65 249 82
381 54z"/>
</g>
</svg>
