<?xml version="1.0" standalone="no"?>
<!DOCTYPE svg PUBLIC "-//W3C//DTD SVG 20010904//EN"
 "http://www.w3.org/TR/2001/REC-SVG-20010904/DTD/svg10.dtd">
<svg version="1.0" xmlns="http://www.w3.org/2000/svg"
 width="512.000000pt" height="512.000000pt" viewBox="0 0 512.000000 512.000000"
 preserveAspectRatio="xMidYMid meet">

<g transform="translate(0.000000,512.000000) scale(0.100000,-0.100000)"
fill="#000000" stroke="none">
<path d="M811 4846 c-53 -30 -50 106 -51 -2283 0 -1702 3 -2228 12 -2248 21
-47 89 -68 134 -42 12 7 387 365 835 797 447 432 816 785 819 785 4 0 373
-353 820 -785 447 -432 822 -790 834 -797 45 -26 113 -5 134 42 17 38 17 4452
0 4490 -26 58 84 55 -1790 55 -1411 -1 -1727 -3 -1747 -14z m3349 -2218 l0
-2032 -82 80 c-945 912 -1455 1401 -1472 1411 -27 16 -65 16 -92 0 -12 -7
-331 -311 -710 -677 -379 -365 -724 -698 -767 -739 l-77 -74 0 2031 0 2032
1600 0 1600 0 0 -2032z"/>
</g>
</svg>
