<?xml version="1.0" standalone="no"?>
<!DOCTYPE svg PUBLIC "-//W3C//DTD SVG 20010904//EN"
 "http://www.w3.org/TR/2001/REC-SVG-20010904/DTD/svg10.dtd">
<svg version="1.0" xmlns="http://www.w3.org/2000/svg"
 width="200.000000pt" height="200.000000pt" viewBox="0 0 200.000000 200.000000"
 preserveAspectRatio="xMidYMid meet">

<g transform="translate(0.000000,200.000000) scale(0.100000,-0.100000)"
fill="#000000" stroke="none">
<path d="M175 1715 c-33 -32 -34 -85 -2 -118 12 -14 151 -134 310 -267 166
-140 289 -251 292 -264 3 -11 37 -187 75 -391 63 -329 73 -373 95 -394 30 -30
88 -32 116 -4 30 30 789 1375 789 1398 0 11 -7 31 -16 43 l-15 22 -810 0 -810
0 -24 -25z m1324 -119 c-2 -2 -149 -88 -327 -191 -284 -164 -325 -185 -340
-174 -34 27 -398 332 -417 350 -19 19 -7 19 534 19 305 0 552 -2 550 -4z m51
-178 c-16 -29 -139 -245 -272 -480 -177 -312 -245 -423 -250 -410 -15 36 -109
567 -101 570 4 1 150 86 323 187 173 102 318 185 323 185 4 0 -6 -24 -23 -52z"/>
</g>
</svg>
