<?xml version="1.0" standalone="no"?>
<!DOCTYPE svg PUBLIC "-//W3C//DTD SVG 20010904//EN"
 "http://www.w3.org/TR/2001/REC-SVG-20010904/DTD/svg10.dtd">
<svg version="1.0" xmlns="http://www.w3.org/2000/svg"
 width="512.000000pt" height="512.000000pt" viewBox="0 0 512.000000 512.000000"
 preserveAspectRatio="xMidYMid meet">

<g transform="translate(0.000000,512.000000) scale(0.100000,-0.100000)"
fill="#000000" stroke="none">
<path d="M4950 5102 c-76 -32 -4770 -2072 -4847 -2107 -59 -27 -76 -40 -89
-69 -26 -54 -7 -108 49 -140 23 -14 433 -231 910 -484 l868 -460 474 -893
c261 -492 484 -904 496 -917 38 -39 93 -41 138 -5 13 11 419 933 1097 2493
1168 2686 1097 2511 1041 2567 -31 32 -82 37 -137 15z m-1730 -1727 c-723
-723 -1318 -1315 -1322 -1315 -9 0 -1519 799 -1531 809 -5 6 4136 1816 4163
1820 3 1 -587 -591 -1310 -1314z m1391 978 c-42 -98 -450 -1036 -906 -2085
-456 -1050 -832 -1905 -836 -1900 -9 9 -809 1521 -809 1528 0 8 2614 2633
2622 2634 4 0 -28 -80 -71 -177z"/>
</g>
</svg>
