<?xml version="1.0" standalone="no"?>
<!DOCTYPE svg PUBLIC "-//W3C//DTD SVG 20010904//EN"
 "http://www.w3.org/TR/2001/REC-SVG-20010904/DTD/svg10.dtd">
<svg version="1.0" xmlns="http://www.w3.org/2000/svg"
 width="820.000000pt" height="560.000000pt" viewBox="0 0 820.000000 560.000000"
 preserveAspectRatio="xMidYMid meet">

<g transform="translate(0.000000,560.000000) scale(0.100000,-0.100000)"
fill="#000000" stroke="none">
<path d="M3865 5189 c-451 -43 -903 -228 -1270 -519 -103 -81 -284 -262 -365
-365 -654 -824 -707 -1959 -132 -2826 303 -456 728 -781 1244 -953 801 -267
1664 -100 2313 447 471 397 778 989 834 1607 71 771 -238 1535 -824 2038 -497
427 -1146 633 -1800 571z m426 -319 c829 -81 1527 -637 1783 -1421 140 -429
140 -869 0 -1298 -256 -784 -954 -1340 -1783 -1421 -850 -83 -1679 383 -2057
1155 -391 801 -233 1755 397 2384 436 437 1053 660 1660 601z"/>
<path d="M3360 3584 c-227 -82 -293 -362 -125 -529 65 -66 125 -90 225 -90
100 0 160 24 225 90 66 65 90 125 90 225 0 100 -24 160 -90 225 -82 82 -222
116 -325 79z"/>
<path d="M4640 3584 c-227 -82 -293 -362 -125 -529 65 -66 125 -90 225 -90
100 0 160 24 225 90 66 65 90 125 90 225 0 100 -24 160 -90 225 -82 82 -222
116 -325 79z"/>
<path d="M3005 2145 c-66 -41 -124 -76 -129 -78 -13 -4 8 -41 71 -125 210
-282 517 -479 863 -553 139 -30 418 -33 553 -6 337 68 644 252 852 510 65 80
121 165 114 171 -17 13 -262 156 -267 156 -4 0 -27 -30 -51 -66 -58 -87 -169
-198 -261 -263 -342 -241 -765 -277 -1135 -97 -176 86 -328 214 -426 359 -24
37 -48 66 -54 66 -5 0 -64 -34 -130 -74z"/>
</g>
</svg>
